; OM File Header - Saved 2019/09/09 18:39:29
; (6.15 :patc (om-make-point 10 10) (om-make-point 558 89) (om-make-point 1326 759) "" 183 0 "2019/09/05 16:58:29" "2019/09/09 18:39:29")
; End File Header
(in-package :om)(load-lib-for (quote nil))(setf *om-current-persistent* (om-load-patch1 "Patch" (quote ((let ((box (om-load-editor-box1 "VOICE 5" (quote voice) (quote ((om-load-inputfun (quote input-funbox) "object" "self" nil) (om-load-inputfun (quote input-funbox) "a list representing a rhythm tree" "tree" (list (quote ?) (list (list (list 4 4) (list 1 1 1 1 1 1 1 1))))) (om-load-inputfun (quote input-funbox) "a chord object, a list of chords, a list of midics, a list of lists of midics..." "chords" (list (let ((thechord (make-instance (quote chord) :lmidic (quote (6000)) :ldur (quote (1000)) :lvel (quote (100)) :loffset (quote (0)) :lchan (quote (1))))) (load-port-info thechord (quote (0))) (init-mus-color thechord (quote nil)) (set-extra-pairs thechord (quote nil)) (set-tonalite thechord nil) thechord))) (om-load-inputfun (quote input-funbox) "frequency of the quarter-note (default 60/mn)" "tempo" 110) (om-load-inputfun (quote input-funbox) "overlapping percentage between every successive chords, calculated from the second chord's duration" "legato" 100) (om-load-inputfun (quote input-funbox) "sub lists (one sub list per chord) indicating notes to be tied to notes of the same value, in a next chord" "ties" nil))) (om-make-point 748 358) (om-make-point 195 90) (let ((newobj (when (find-class (quote voice) nil) (make-instance (quote voice) :tree (quote (1 (((4 4) (1 1 1 1 1 1 1 1))))) :chords (load-obj-list-from-save (quote ((let ((thechord (make-instance (quote chord) :lmidic (quote (6400)) :ldur (quote (273)) :lvel (quote (80)) :loffset (quote (0)) :lchan (quote (1))))) (load-port-info thechord (quote (nil))) (init-mus-color thechord (quote nil)) (set-extra-pairs thechord (quote nil)) (set-tonalite thechord nil) thechord) (let ((thechord (make-instance (quote chord) :lmidic (quote (6600)) :ldur (quote (273)) :lvel (quote (80)) :loffset (quote (0)) :lchan (quote (1))))) (load-port-info thechord (quote (nil))) (init-mus-color thechord (quote nil)) (set-extra-pairs thechord (quote nil)) (set-tonalite thechord nil) thechord) (let ((thechord (make-instance (quote chord) :lmidic (quote (6700)) :ldur (quote (273)) :lvel (quote (80)) :loffset (quote (0)) :lchan (quote (1))))) (load-port-info thechord (quote (nil))) (init-mus-color thechord (quote nil)) (set-extra-pairs thechord (quote nil)) (set-tonalite thechord nil) thechord) (let ((thechord (make-instance (quote chord) :lmidic (quote (6900)) :ldur (quote (273)) :lvel (quote (80)) :loffset (quote (0)) :lchan (quote (1))))) (load-port-info thechord (quote (nil))) (init-mus-color thechord (quote nil)) (set-extra-pairs thechord (quote nil)) (set-tonalite thechord nil) thechord) (let ((thechord (make-instance (quote chord) :lmidic (quote (6900)) :ldur (quote (273)) :lvel (quote (80)) :loffset (quote (0)) :lchan (quote (1))))) (load-port-info thechord (quote (nil))) (init-mus-color thechord (quote nil)) (set-extra-pairs thechord (quote nil)) (set-tonalite thechord nil) thechord) (let ((thechord (make-instance (quote chord) :lmidic (quote (6600)) :ldur (quote (273)) :lvel (quote (80)) :loffset (quote (0)) :lchan (quote (1))))) (load-port-info thechord (quote (nil))) (init-mus-color thechord (quote nil)) (set-extra-pairs thechord (quote nil)) (set-tonalite thechord nil) thechord) (let ((thechord (make-instance (quote chord) :lmidic (quote (6400)) :ldur (quote (273)) :lvel (quote (80)) :loffset (quote (0)) :lchan (quote (1))))) (load-port-info thechord (quote (nil))) (init-mus-color thechord (quote nil)) (set-extra-pairs thechord (quote nil)) (set-tonalite thechord nil) thechord) (let ((thechord (make-instance (quote chord) :lmidic (quote (6200)) :ldur (quote (273)) :lvel (quote (80)) :loffset (quote (0)) :lchan (quote (1))))) (load-port-info thechord (quote (nil))) (init-mus-color thechord (quote nil)) (set-extra-pairs thechord (quote nil)) (set-tonalite thechord nil) thechord)))) :tempo (quote ((1/4 110) nil)) :legato 100 :ties (quote (nil nil nil nil nil nil nil nil)))))) (load-port-info newobj (quote nil)) (init-mus-color newobj (quote nil)) (set-extra-pairs newobj (quote nil)) (set-patch-pairs newobj (quote ((nil (om-load-patch-abs1 "patch" (quote nil) (quote nil) 6.15 nil "" (om-make-point 200 200) (om-make-point 400 500)))))) (set-name newobj nil) (set-tonalite newobj (make-instance (quote tonalite-modulee) :tonnote (quote re) :tonalt (quote becarre) :mode (quote (0 200 400 500 700 900 1100)))) newobj) "x" nil (pairlis (quote (approx fontsize staff cmnpref deltapict outport inport player zoom notechancolor? grillestep mode winsize winpos score-mode obj-mode cursor-mode show-stems scale)) (list 2 24 (quote g) (let ((newobj (make-instance (quote edition-values)))) (setf (paper-size newobj) (om-make-point 600 800)) (setf (top-margin newobj) 2) (setf (left-margin newobj) 1) (setf (right-margin newobj) 1) (setf (bottom-margin newobj) 1) (setf (orientation newobj) nil) (setf (scale newobj) nil) (setf (system-space newobj) (quote (1))) (setf (system-color newobj) (quote nil)) (setf (line-space newobj) 1) (setf (title newobj) nil) (setf (show-title? newobj) nil) (setf (show-page? newobj) nil) (setf (sheet-id newobj) nil) (setf (page-mode newobj) nil) newobj) (om-make-point 0 0) nil nil (quote :midi-player) 1 nil 1000 0 (om-make-point 370 280) (om-make-point 400 23) 0 4 (quote :normal) (quote t) nil)) t nil nil nil))) (when (fboundp (quote set-active)) (set-active box nil)) box) (let ((box (om-load-editor-box1 "VOICE 4" (quote voice) (quote ((om-load-inputfun (quote input-funbox) "object" "self" nil) (om-load-inputfun (quote input-funbox) "a list representing a rhythm tree" "tree" (list (quote ?) (list (list (list 4 4) (list 1 1 1 1 1 1 1 1 1 1))))) (om-load-inputfun (quote input-funbox) "a chord object, a list of chords, a list of midics, a list of lists of midics..." "chords" (list (let ((thechord (make-instance (quote chord) :lmidic (quote (6000)) :ldur (quote (1000)) :lvel (quote (100)) :loffset (quote (0)) :lchan (quote (1))))) (load-port-info thechord (quote (0))) (init-mus-color thechord (quote nil)) (set-extra-pairs thechord (quote nil)) (set-tonalite thechord nil) thechord))) (om-load-inputfun (quote input-funbox) "frequency of the quarter-note (default 60/mn)" "tempo" 110) (om-load-inputfun (quote input-funbox) "overlapping percentage between every successive chords, calculated from the second chord's duration" "legato" 100) (om-load-inputfun (quote input-funbox) "sub lists (one sub list per chord) indicating notes to be tied to notes of the same value, in a next chord" "ties" nil))) (om-make-point 475 345) (om-make-point 170 84) (let ((newobj (when (find-class (quote voice) nil) (make-instance (quote voice) :tree (quote (1 (((4 4) ((4 (1 1 1 1 1 1 1 1 1 1))))))) :chords (load-obj-list-from-save (quote ((let ((thechord (make-instance (quote chord) :lmidic (quote (7100)) :ldur (quote (218)) :lvel (quote (80)) :loffset (quote (0)) :lchan (quote (1))))) (load-port-info thechord (quote (nil))) (init-mus-color thechord (quote nil)) (set-extra-pairs thechord (quote nil)) (set-tonalite thechord nil) thechord) (let ((thechord (make-instance (quote chord) :lmidic (quote (7100)) :ldur (quote (218)) :lvel (quote (80)) :loffset (quote (0)) :lchan (quote (1))))) (load-port-info thechord (quote (nil))) (init-mus-color thechord (quote nil)) (set-extra-pairs thechord (quote nil)) (set-tonalite thechord nil) thechord) (let ((thechord (make-instance (quote chord) :lmidic (quote (7100)) :ldur (quote (218)) :lvel (quote (80)) :loffset (quote (0)) :lchan (quote (1))))) (load-port-info thechord (quote (nil))) (init-mus-color thechord (quote nil)) (set-extra-pairs thechord (quote nil)) (set-tonalite thechord nil) thechord) (let ((thechord (make-instance (quote chord) :lmidic (quote (6900)) :ldur (quote (218)) :lvel (quote (80)) :loffset (quote (0)) :lchan (quote (1))))) (load-port-info thechord (quote (nil))) (init-mus-color thechord (quote nil)) (set-extra-pairs thechord (quote nil)) (set-tonalite thechord nil) thechord) (let ((thechord (make-instance (quote chord) :lmidic (quote (6900)) :ldur (quote (218)) :lvel (quote (80)) :loffset (quote (0)) :lchan (quote (1))))) (load-port-info thechord (quote (nil))) (init-mus-color thechord (quote nil)) (set-extra-pairs thechord (quote nil)) (set-tonalite thechord nil) thechord) (let ((thechord (make-instance (quote chord) :lmidic (quote (6600)) :ldur (quote (218)) :lvel (quote (80)) :loffset (quote (0)) :lchan (quote (1))))) (load-port-info thechord (quote (nil))) (init-mus-color thechord (quote nil)) (set-extra-pairs thechord (quote nil)) (set-tonalite thechord nil) thechord) (let ((thechord (make-instance (quote chord) :lmidic (quote (6900)) :ldur (quote (218)) :lvel (quote (80)) :loffset (quote (0)) :lchan (quote (1))))) (load-port-info thechord (quote (nil))) (init-mus-color thechord (quote nil)) (set-extra-pairs thechord (quote nil)) (set-tonalite thechord nil) thechord) (let ((thechord (make-instance (quote chord) :lmidic (quote (6600)) :ldur (quote (218)) :lvel (quote (80)) :loffset (quote (0)) :lchan (quote (1))))) (load-port-info thechord (quote (nil))) (init-mus-color thechord (quote nil)) (set-extra-pairs thechord (quote nil)) (set-tonalite thechord nil) thechord) (let ((thechord (make-instance (quote chord) :lmidic (quote (6400)) :ldur (quote (218)) :lvel (quote (80)) :loffset (quote (0)) :lchan (quote (1))))) (load-port-info thechord (quote (nil))) (init-mus-color thechord (quote nil)) (set-extra-pairs thechord (quote nil)) (set-tonalite thechord nil) thechord) (let ((thechord (make-instance (quote chord) :lmidic (quote (6200)) :ldur (quote (218)) :lvel (quote (80)) :loffset (quote (0)) :lchan (quote (1))))) (load-port-info thechord (quote (nil))) (init-mus-color thechord (quote nil)) (set-extra-pairs thechord (quote nil)) (set-tonalite thechord nil) thechord)))) :tempo (quote ((1/4 110) nil)) :legato 100 :ties (quote (nil nil nil nil nil nil nil nil nil nil)))))) (load-port-info newobj (quote nil)) (init-mus-color newobj (quote nil)) (set-extra-pairs newobj (quote nil)) (set-patch-pairs newobj (quote ((nil (om-load-patch-abs1 "patch" (quote nil) (quote nil) 6.15 nil "" (om-make-point 200 200) (om-make-point 400 500)))))) (set-name newobj nil) (set-tonalite newobj (make-instance (quote tonalite-modulee) :tonnote (quote re) :tonalt (quote becarre) :mode (quote (0 200 400 500 700 900 1100)))) newobj) "x" nil (pairlis (quote (approx fontsize staff cmnpref deltapict outport inport player zoom notechancolor? grillestep mode winsize winpos score-mode obj-mode cursor-mode show-stems scale)) (list 2 24 (quote g) (let ((newobj (make-instance (quote edition-values)))) (setf (paper-size newobj) (om-make-point 600 800)) (setf (top-margin newobj) 2) (setf (left-margin newobj) 1) (setf (right-margin newobj) 1) (setf (bottom-margin newobj) 1) (setf (orientation newobj) nil) (setf (scale newobj) nil) (setf (system-space newobj) (quote (1))) (setf (system-color newobj) (quote nil)) (setf (line-space newobj) 1) (setf (title newobj) nil) (setf (show-title? newobj) nil) (setf (show-page? newobj) nil) (setf (sheet-id newobj) nil) (setf (page-mode newobj) nil) newobj) (om-make-point 0 0) nil nil (quote :midi-player) 1 nil 1000 0 (om-make-point 370 280) (om-make-point 400 23) 0 4 (quote :normal) (quote t) nil)) t nil nil nil))) (when (fboundp (quote set-active)) (set-active box nil)) box) (let ((box (om-load-editor-box1 "VOICE 3" (quote voice) (quote ((om-load-inputfun (quote input-funbox) "object" "self" nil) (om-load-inputfun (quote input-funbox) "a list representing a rhythm tree" "tree" (list (quote ?) (list (list (list 4 4) (list 1 1 1 1 1 1 1 1))))) (om-load-inputfun (quote input-funbox) "a chord object, a list of chords, a list of midics, a list of lists of midics..." "chords" (list (let ((thechord (make-instance (quote chord) :lmidic (quote (6000)) :ldur (quote (1000)) :lvel (quote (100)) :loffset (quote (0)) :lchan (quote (1))))) (load-port-info thechord (quote (0))) (init-mus-color thechord (quote nil)) (set-extra-pairs thechord (quote nil)) (set-tonalite thechord nil) thechord))) (om-load-inputfun (quote input-funbox) "frequency of the quarter-note (default 60/mn)" "tempo" 110) (om-load-inputfun (quote input-funbox) "overlapping percentage between every successive chords, calculated from the second chord's duration" "legato" 100) (om-load-inputfun (quote input-funbox) "sub lists (one sub list per chord) indicating notes to be tied to notes of the same value, in a next chord" "ties" nil))) (om-make-point 233 351) (om-make-point 173 92) (let ((newobj (when (find-class (quote voice) nil) (make-instance (quote voice) :tree (quote (1 (((4 4) (1 1 1 1 1 1 1 1))))) :chords (load-obj-list-from-save (quote ((let ((thechord (make-instance (quote chord) :lmidic (quote (7100)) :ldur (quote (273)) :lvel (quote (80)) :loffset (quote (0)) :lchan (quote (1))))) (load-port-info thechord (quote (nil))) (init-mus-color thechord (quote nil)) (set-extra-pairs thechord (quote nil)) (set-tonalite thechord nil) thechord) (let ((thechord (make-instance (quote chord) :lmidic (quote (7100)) :ldur (quote (273)) :lvel (quote (80)) :loffset (quote (0)) :lchan (quote (1))))) (load-port-info thechord (quote (nil))) (init-mus-color thechord (quote nil)) (set-extra-pairs thechord (quote nil)) (set-tonalite thechord nil) thechord) (let ((thechord (make-instance (quote chord) :lmidic (quote (7100)) :ldur (quote (273)) :lvel (quote (80)) :loffset (quote (0)) :lchan (quote (1))))) (load-port-info thechord (quote (nil))) (init-mus-color thechord (quote nil)) (set-extra-pairs thechord (quote nil)) (set-tonalite thechord nil) thechord) (let ((thechord (make-instance (quote chord) :lmidic (quote (6900)) :ldur (quote (273)) :lvel (quote (80)) :loffset (quote (0)) :lchan (quote (1))))) (load-port-info thechord (quote (nil))) (init-mus-color thechord (quote nil)) (set-extra-pairs thechord (quote nil)) (set-tonalite thechord nil) thechord) (let ((thechord (make-instance (quote chord) :lmidic (quote (6900)) :ldur (quote (273)) :lvel (quote (80)) :loffset (quote (0)) :lchan (quote (1))))) (load-port-info thechord (quote (nil))) (init-mus-color thechord (quote nil)) (set-extra-pairs thechord (quote nil)) (set-tonalite thechord nil) thechord) (let ((thechord (make-instance (quote chord) :lmidic (quote (6600)) :ldur (quote (273)) :lvel (quote (80)) :loffset (quote (0)) :lchan (quote (1))))) (load-port-info thechord (quote (nil))) (init-mus-color thechord (quote nil)) (set-extra-pairs thechord (quote nil)) (set-tonalite thechord nil) thechord) (let ((thechord (make-instance (quote chord) :lmidic (quote (6400)) :ldur (quote (273)) :lvel (quote (80)) :loffset (quote (0)) :lchan (quote (1))))) (load-port-info thechord (quote (nil))) (init-mus-color thechord (quote nil)) (set-extra-pairs thechord (quote nil)) (set-tonalite thechord nil) thechord) (let ((thechord (make-instance (quote chord) :lmidic (quote (6200)) :ldur (quote (273)) :lvel (quote (80)) :loffset (quote (0)) :lchan (quote (1))))) (load-port-info thechord (quote (nil))) (init-mus-color thechord (quote nil)) (set-extra-pairs thechord (quote nil)) (set-tonalite thechord nil) thechord)))) :tempo (quote ((1/4 110) nil)) :legato 100 :ties (quote (nil nil nil nil nil nil nil nil)))))) (load-port-info newobj (quote nil)) (init-mus-color newobj (quote nil)) (set-extra-pairs newobj (quote nil)) (set-patch-pairs newobj (quote ((nil (om-load-patch-abs1 "patch" (quote nil) (quote nil) 6.15 nil "" (om-make-point 200 200) (om-make-point 400 500)))))) (set-name newobj nil) (set-tonalite newobj (make-instance (quote tonalite-modulee) :tonnote (quote re) :tonalt (quote becarre) :mode (quote (0 200 400 500 700 900 1100)))) newobj) "x" nil (pairlis (quote (approx fontsize staff cmnpref deltapict outport inport player zoom notechancolor? grillestep mode winsize winpos score-mode obj-mode cursor-mode show-stems scale)) (list 2 24 (quote g) (let ((newobj (make-instance (quote edition-values)))) (setf (paper-size newobj) (om-make-point 600 800)) (setf (top-margin newobj) 2) (setf (left-margin newobj) 1) (setf (right-margin newobj) 1) (setf (bottom-margin newobj) 1) (setf (orientation newobj) nil) (setf (scale newobj) nil) (setf (system-space newobj) (quote (1))) (setf (system-color newobj) (quote nil)) (setf (line-space newobj) 1) (setf (title newobj) nil) (setf (show-title? newobj) nil) (setf (show-page? newobj) nil) (setf (sheet-id newobj) nil) (setf (page-mode newobj) nil) newobj) (om-make-point 0 0) nil nil (quote :midi-player) 1 nil 1000 0 (om-make-point 370 280) (om-make-point 400 23) 0 4 (quote :normal) (quote t) nil)) t nil nil nil))) (when (fboundp (quote set-active)) (set-active box nil)) box) (let ((box (om-load-editor-box1 "VOICE 2" (quote voice) (quote ((om-load-inputfun (quote input-funbox) "object" "self" nil) (om-load-inputfun (quote input-funbox) "a list representing a rhythm tree" "tree" (list (quote ?) (list (list (list 4 4) (list 1 1 1 1 1 1 1 1 1 1))))) (om-load-inputfun (quote input-funbox) "a chord object, a list of chords, a list of midics, a list of lists of midics..." "chords" (list (let ((thechord (make-instance (quote chord) :lmidic (quote (6000)) :ldur (quote (1000)) :lvel (quote (100)) :loffset (quote (0)) :lchan (quote (1))))) (load-port-info thechord (quote (0))) (init-mus-color thechord (quote nil)) (set-extra-pairs thechord (quote nil)) (set-tonalite thechord nil) thechord))) (om-load-inputfun (quote input-funbox) "frequency of the quarter-note (default 60/mn)" "tempo" 110) (om-load-inputfun (quote input-funbox) "overlapping percentage between every successive chords, calculated from the second chord's duration" "legato" 100) (om-load-inputfun (quote input-funbox) "sub lists (one sub list per chord) indicating notes to be tied to notes of the same value, in a next chord" "ties" nil))) (om-make-point 31 339) (om-make-point 164 94) (let ((newobj (when (find-class (quote voice) nil) (make-instance (quote voice) :tree (quote (1 (((4 4) ((4 (1 1 1 1 1 1 1 1 1 1))))))) :chords (load-obj-list-from-save (quote ((let ((thechord (make-instance (quote chord) :lmidic (quote (7100)) :ldur (quote (218)) :lvel (quote (80)) :loffset (quote (0)) :lchan (quote (1))))) (load-port-info thechord (quote (nil))) (init-mus-color thechord (quote nil)) (set-extra-pairs thechord (quote nil)) (set-tonalite thechord nil) thechord) (let ((thechord (make-instance (quote chord) :lmidic (quote (7100)) :ldur (quote (218)) :lvel (quote (80)) :loffset (quote (0)) :lchan (quote (1))))) (load-port-info thechord (quote (nil))) (init-mus-color thechord (quote nil)) (set-extra-pairs thechord (quote nil)) (set-tonalite thechord nil) thechord) (let ((thechord (make-instance (quote chord) :lmidic (quote (7100)) :ldur (quote (218)) :lvel (quote (80)) :loffset (quote (0)) :lchan (quote (1))))) (load-port-info thechord (quote (nil))) (init-mus-color thechord (quote nil)) (set-extra-pairs thechord (quote nil)) (set-tonalite thechord nil) thechord) (let ((thechord (make-instance (quote chord) :lmidic (quote (7100)) :ldur (quote (218)) :lvel (quote (80)) :loffset (quote (0)) :lchan (quote (1))))) (load-port-info thechord (quote (nil))) (init-mus-color thechord (quote nil)) (set-extra-pairs thechord (quote nil)) (set-tonalite thechord nil) thechord) (let ((thechord (make-instance (quote chord) :lmidic (quote (6900)) :ldur (quote (218)) :lvel (quote (80)) :loffset (quote (0)) :lchan (quote (1))))) (load-port-info thechord (quote (nil))) (init-mus-color thechord (quote nil)) (set-extra-pairs thechord (quote nil)) (set-tonalite thechord nil) thechord) (let ((thechord (make-instance (quote chord) :lmidic (quote (6600)) :ldur (quote (218)) :lvel (quote (80)) :loffset (quote (0)) :lchan (quote (1))))) (load-port-info thechord (quote (nil))) (init-mus-color thechord (quote nil)) (set-extra-pairs thechord (quote nil)) (set-tonalite thechord nil) thechord) (let ((thechord (make-instance (quote chord) :lmidic (quote (6900)) :ldur (quote (218)) :lvel (quote (80)) :loffset (quote (0)) :lchan (quote (1))))) (load-port-info thechord (quote (nil))) (init-mus-color thechord (quote nil)) (set-extra-pairs thechord (quote nil)) (set-tonalite thechord nil) thechord) (let ((thechord (make-instance (quote chord) :lmidic (quote (6600)) :ldur (quote (218)) :lvel (quote (80)) :loffset (quote (0)) :lchan (quote (1))))) (load-port-info thechord (quote (nil))) (init-mus-color thechord (quote nil)) (set-extra-pairs thechord (quote nil)) (set-tonalite thechord nil) thechord) (let ((thechord (make-instance (quote chord) :lmidic (quote (6400)) :ldur (quote (218)) :lvel (quote (80)) :loffset (quote (0)) :lchan (quote (1))))) (load-port-info thechord (quote (nil))) (init-mus-color thechord (quote nil)) (set-extra-pairs thechord (quote nil)) (set-tonalite thechord nil) thechord) (let ((thechord (make-instance (quote chord) :lmidic (quote (6200)) :ldur (quote (218)) :lvel (quote (80)) :loffset (quote (0)) :lchan (quote (1))))) (load-port-info thechord (quote (nil))) (init-mus-color thechord (quote nil)) (set-extra-pairs thechord (quote nil)) (set-tonalite thechord nil) thechord)))) :tempo (quote ((1/4 110) nil)) :legato 100 :ties (quote (nil nil nil nil nil nil nil nil nil nil)))))) (load-port-info newobj (quote nil)) (init-mus-color newobj (quote nil)) (set-extra-pairs newobj (quote nil)) (set-patch-pairs newobj (quote ((nil (om-load-patch-abs1 "patch" (quote nil) (quote nil) 6.15 nil "" (om-make-point 200 200) (om-make-point 400 500)))))) (set-name newobj nil) (set-tonalite newobj (make-instance (quote tonalite-modulee) :tonnote (quote re) :tonalt (quote becarre) :mode (quote (0 200 400 500 700 900 1100)))) newobj) "x" nil (pairlis (quote (approx fontsize staff cmnpref deltapict outport inport player zoom notechancolor? grillestep mode winsize winpos score-mode obj-mode cursor-mode show-stems scale)) (list 2 24 (quote g) (let ((newobj (make-instance (quote edition-values)))) (setf (paper-size newobj) (om-make-point 600 800)) (setf (top-margin newobj) 2) (setf (left-margin newobj) 1) (setf (right-margin newobj) 1) (setf (bottom-margin newobj) 1) (setf (orientation newobj) nil) (setf (scale newobj) nil) (setf (system-space newobj) (quote (1))) (setf (system-color newobj) (quote nil)) (setf (line-space newobj) 1) (setf (title newobj) nil) (setf (show-title? newobj) nil) (setf (show-page? newobj) nil) (setf (sheet-id newobj) nil) (setf (page-mode newobj) nil) newobj) (om-make-point 0 0) nil nil (quote :midi-player) 1 nil 1000 0 (om-make-point 370 280) (om-make-point 400 23) 0 4 (quote :normal) (quote t) nil)) t nil nil nil))) (when (fboundp (quote set-active)) (set-active box nil)) box) (let ((box (om-load-boxcall (quote lispfun) "LIST 5" (quote list) (quote ((om-load-inputfun (quote input-funbox) "add-input" "add-input" nil) (om-load-inputfun (quote input-funbox) "add-input" "add-input" nil) (om-load-inputfun (quote input-funbox) "add-input" "add-input" nil) (om-load-inputfun (quote input-funbox) "add-input" "add-input" nil))) (om-make-point 433 467) nil nil nil nil 1))) (when (fboundp (quote set-active)) (set-active box nil)) box) (let ((box (om-load-boxcall (quote lispfun) "LIST 4" (quote list) (quote ((om-load-inputfun (quote input-funbox) "add-input" "add-input" nil) (om-load-inputfun (quote input-funbox) "add-input" "add-input" nil) (om-load-inputfun (quote input-funbox) "add-input" "add-input" nil) (om-load-inputfun (quote input-funbox) "add-input" "add-input" nil) (om-load-inputfun (quote input-funbox) "add-input" "add-input" nil) (om-load-inputfun (quote input-funbox) "add-input" "add-input" nil) (om-load-inputfun (quote input-funbox) "add-input" "add-input" nil) (om-load-inputfun (quote input-funbox) "add-input" "add-input" nil))) (om-make-point 781 201) nil nil nil nil 1))) (when (fboundp (quote set-active)) (set-active box nil)) box) (let ((box (om-load-boxcall (quote lispfun) "LIST 3" (quote list) (quote ((om-load-inputfun (quote input-funbox) "add-input" "add-input" nil) (om-load-inputfun (quote input-funbox) "add-input" "add-input" nil) (om-load-inputfun (quote input-funbox) "add-input" "add-input" nil) (om-load-inputfun (quote input-funbox) "add-input" "add-input" nil) (om-load-inputfun (quote input-funbox) "add-input" "add-input" nil) (om-load-inputfun (quote input-funbox) "add-input" "add-input" nil) (om-load-inputfun (quote input-funbox) "add-input" "add-input" nil) (om-load-inputfun (quote input-funbox) "add-input" "add-input" nil) (om-load-inputfun (quote input-funbox) "add-input" "add-input" nil) (om-load-inputfun (quote input-funbox) "add-input" "add-input" nil))) (om-make-point 487 217) nil nil nil nil 1))) (when (fboundp (quote set-active)) (set-active box nil)) box) (let ((box (om-load-boxcall (quote lispfun) "LIST 2" (quote list) (quote ((om-load-inputfun (quote input-funbox) "add-input" "add-input" nil) (om-load-inputfun (quote input-funbox) "add-input" "add-input" nil) (om-load-inputfun (quote input-funbox) "add-input" "add-input" nil) (om-load-inputfun (quote input-funbox) "add-input" "add-input" nil) (om-load-inputfun (quote input-funbox) "add-input" "add-input" nil) (om-load-inputfun (quote input-funbox) "add-input" "add-input" nil) (om-load-inputfun (quote input-funbox) "add-input" "add-input" nil) (om-load-inputfun (quote input-funbox) "add-input" "add-input" nil))) (om-make-point 263 201) nil nil nil nil 1))) (when (fboundp (quote set-active)) (set-active box nil)) box) (let ((box (om-load-boxcall (quote lispfun) "LIST" (quote list) (quote ((om-load-inputfun (quote input-funbox) "add-input" "add-input" nil) (om-load-inputfun (quote input-funbox) "add-input" "add-input" nil) (om-load-inputfun (quote input-funbox) "add-input" "add-input" nil) (om-load-inputfun (quote input-funbox) "add-input" "add-input" nil) (om-load-inputfun (quote input-funbox) "add-input" "add-input" nil) (om-load-inputfun (quote input-funbox) "add-input" "add-input" nil) (om-load-inputfun (quote input-funbox) "add-input" "add-input" nil) (om-load-inputfun (quote input-funbox) "add-input" "add-input" nil) (om-load-inputfun (quote input-funbox) "add-input" "add-input" nil) (om-load-inputfun (quote input-funbox) "add-input" "add-input" nil))) (om-make-point 11 208) nil nil nil nil 1))) (when (fboundp (quote set-active)) (set-active box nil)) box) (let ((box (om-load-editor-box1 "NOTE 8" (quote note) (quote ((om-load-inputfun (quote input-funbox) "object" "self" nil) (om-load-inputfun (quote input-funbox) "pitch (midicents)" "midic" 6600) (om-load-inputfun (quote input-funbox) "velocity (0-127)" "vel" 80) (om-load-inputfun (quote input-funbox) "duration (ms)" "dur" 1000) (om-load-inputfun (quote input-funbox) "MIDI channel (1-16)" "chan" 1))) (om-make-point 632 20) (om-make-point 60 60) (if (find-class (quote note) nil) (let ((newobj (make-instance (quote note) :midic 6600 :vel 80 :dur 1000 :chan 1 :from-file t))) (load-port-info newobj (quote nil)) (init-mus-color newobj (quote nil)) (set-extra-pairs newobj (quote nil)) (set-patch-pairs newobj (quote nil)) (set-name newobj nil) (set-tonalite newobj nil) newobj)) nil nil (pairlis (quote (scale show-stems cursor-mode obj-mode score-mode winpos winsize mode grillestep notechancolor? zoom player inport outport deltapict cmnpref staff fontsize approx)) (list nil (quote t) (quote :normal) 0 0 (om-make-point 300 20) (om-make-point 370 280) 0 1000 nil 1 (quote :midi-player) nil nil (om-make-point 0 0) (let ((newobj (make-instance (quote edition-values)))) (setf (paper-size newobj) (om-make-point 600 800)) (setf (top-margin newobj) 2) (setf (left-margin newobj) 1) (setf (right-margin newobj) 1) (setf (bottom-margin newobj) 1) (setf (orientation newobj) nil) (setf (scale newobj) nil) (setf (system-space newobj) (quote (1))) (setf (system-color newobj) (quote nil)) (setf (line-space newobj) 1) (setf (title newobj) nil) (setf (show-title? newobj) nil) (setf (show-page? newobj) nil) (setf (sheet-id newobj) nil) (setf (page-mode newobj) nil) newobj) (quote g) 24 2)) t nil nil nil))) (when (fboundp (quote set-active)) (set-active box nil)) box) (let ((box (om-load-editor-box1 "NOTE 7" (quote note) (quote ((om-load-inputfun (quote input-funbox) "object" "self" nil) (om-load-inputfun (quote input-funbox) "pitch (midicents)" "midic" 7100) (om-load-inputfun (quote input-funbox) "velocity (0-127)" "vel" 80) (om-load-inputfun (quote input-funbox) "duration (ms)" "dur" 1000) (om-load-inputfun (quote input-funbox) "MIDI channel (1-16)" "chan" 1))) (om-make-point 544 21) (om-make-point 60 60) (if (find-class (quote note) nil) (let ((newobj (make-instance (quote note) :midic 7100 :vel 80 :dur 1000 :chan 1 :from-file t))) (load-port-info newobj (quote nil)) (init-mus-color newobj (quote nil)) (set-extra-pairs newobj (quote nil)) (set-patch-pairs newobj (quote nil)) (set-name newobj nil) (set-tonalite newobj nil) newobj)) nil nil (pairlis (quote (scale show-stems cursor-mode obj-mode score-mode winpos winsize mode grillestep notechancolor? zoom player inport outport deltapict cmnpref staff fontsize approx)) (list nil (quote t) (quote :normal) 0 0 (om-make-point 300 20) (om-make-point 370 280) 0 1000 nil 1 (quote :midi-player) nil nil (om-make-point 0 0) (let ((newobj (make-instance (quote edition-values)))) (setf (paper-size newobj) (om-make-point 600 800)) (setf (top-margin newobj) 2) (setf (left-margin newobj) 1) (setf (right-margin newobj) 1) (setf (bottom-margin newobj) 1) (setf (orientation newobj) nil) (setf (scale newobj) nil) (setf (system-space newobj) (quote (1))) (setf (system-color newobj) (quote nil)) (setf (line-space newobj) 1) (setf (title newobj) nil) (setf (show-title? newobj) nil) (setf (show-page? newobj) nil) (setf (sheet-id newobj) nil) (setf (page-mode newobj) nil) newobj) (quote g) 24 2)) t nil nil nil))) (when (fboundp (quote set-active)) (set-active box nil)) box) (let ((box (om-load-editor-box1 "NOTE 6" (quote note) (quote ((om-load-inputfun (quote input-funbox) "object" "self" nil) (om-load-inputfun (quote input-funbox) "pitch (midicents)" "midic" 6900) (om-load-inputfun (quote input-funbox) "velocity (0-127)" "vel" 80) (om-load-inputfun (quote input-funbox) "duration (ms)" "dur" 1000) (om-load-inputfun (quote input-funbox) "MIDI channel (1-16)" "chan" 1))) (om-make-point 458 23) (om-make-point 60 60) (if (find-class (quote note) nil) (let ((newobj (make-instance (quote note) :midic 6900 :vel 80 :dur 1000 :chan 1 :from-file t))) (load-port-info newobj (quote nil)) (init-mus-color newobj (quote nil)) (set-extra-pairs newobj (quote nil)) (set-patch-pairs newobj (quote nil)) (set-name newobj nil) (set-tonalite newobj nil) newobj)) nil nil (pairlis (quote (scale show-stems cursor-mode obj-mode score-mode winpos winsize mode grillestep notechancolor? zoom player inport outport deltapict cmnpref staff fontsize approx)) (list nil (quote t) (quote :normal) 0 0 (om-make-point 300 23) (om-make-point 370 280) 0 1000 nil 1 (quote :midi-player) nil nil (om-make-point 0 0) (let ((newobj (make-instance (quote edition-values)))) (setf (paper-size newobj) (om-make-point 600 800)) (setf (top-margin newobj) 2) (setf (left-margin newobj) 1) (setf (right-margin newobj) 1) (setf (bottom-margin newobj) 1) (setf (orientation newobj) nil) (setf (scale newobj) nil) (setf (system-space newobj) (quote (1))) (setf (system-color newobj) (quote nil)) (setf (line-space newobj) 1) (setf (title newobj) nil) (setf (show-title? newobj) nil) (setf (show-page? newobj) nil) (setf (sheet-id newobj) nil) (setf (page-mode newobj) nil) newobj) (quote g) 24 2)) t nil nil nil))) (when (fboundp (quote set-active)) (set-active box nil)) box) (let ((box (om-load-editor-box1 "NOTE 5" (quote note) (quote ((om-load-inputfun (quote input-funbox) "object" "self" nil) (om-load-inputfun (quote input-funbox) "pitch (midicents)" "midic" 6700) (om-load-inputfun (quote input-funbox) "velocity (0-127)" "vel" 80) (om-load-inputfun (quote input-funbox) "duration (ms)" "dur" 1000) (om-load-inputfun (quote input-funbox) "MIDI channel (1-16)" "chan" 1))) (om-make-point 376 25) (om-make-point 60 60) (if (find-class (quote note) nil) (let ((newobj (make-instance (quote note) :midic 6700 :vel 80 :dur 1000 :chan 1 :from-file t))) (load-port-info newobj (quote nil)) (init-mus-color newobj (quote nil)) (set-extra-pairs newobj (quote nil)) (set-patch-pairs newobj (quote nil)) (set-name newobj nil) (set-tonalite newobj nil) newobj)) nil nil (pairlis (quote (scale show-stems cursor-mode obj-mode score-mode winpos winsize mode grillestep notechancolor? zoom player inport outport deltapict cmnpref staff fontsize approx)) (list nil (quote t) (quote :normal) 0 0 (om-make-point 300 20) (om-make-point 370 280) 0 1000 nil 1 (quote :midi-player) nil nil (om-make-point 0 0) (let ((newobj (make-instance (quote edition-values)))) (setf (paper-size newobj) (om-make-point 600 800)) (setf (top-margin newobj) 2) (setf (left-margin newobj) 1) (setf (right-margin newobj) 1) (setf (bottom-margin newobj) 1) (setf (orientation newobj) nil) (setf (scale newobj) nil) (setf (system-space newobj) (quote (1))) (setf (system-color newobj) (quote nil)) (setf (line-space newobj) 1) (setf (title newobj) nil) (setf (show-title? newobj) nil) (setf (show-page? newobj) nil) (setf (sheet-id newobj) nil) (setf (page-mode newobj) nil) newobj) (quote g) 24 2)) t nil nil nil))) (when (fboundp (quote set-active)) (set-active box nil)) box) (let ((box (om-load-editor-box1 "NOTE 4" (quote note) (quote ((om-load-inputfun (quote input-funbox) "object" "self" nil) (om-load-inputfun (quote input-funbox) "pitch (midicents)" "midic" 6500) (om-load-inputfun (quote input-funbox) "velocity (0-127)" "vel" 80) (om-load-inputfun (quote input-funbox) "duration (ms)" "dur" 1000) (om-load-inputfun (quote input-funbox) "MIDI channel (1-16)" "chan" 1))) (om-make-point 294 26) (om-make-point 60 60) (if (find-class (quote note) nil) (let ((newobj (make-instance (quote note) :midic 6000 :vel 80 :dur 1000 :chan 1 :from-file t))) (load-port-info newobj (quote nil)) (init-mus-color newobj (quote nil)) (set-extra-pairs newobj (quote nil)) (set-patch-pairs newobj (quote nil)) (set-name newobj nil) (set-tonalite newobj nil) newobj)) nil nil (pairlis (quote (scale show-stems cursor-mode obj-mode score-mode winpos winsize mode grillestep notechancolor? zoom player inport outport deltapict cmnpref staff fontsize approx)) (list nil (quote t) (quote :normal) 0 0 (om-make-point 300 20) (om-make-point 370 280) 0 1000 nil 1 (quote :midi-player) nil nil (om-make-point 0 0) (let ((newobj (make-instance (quote edition-values)))) (setf (paper-size newobj) (om-make-point 600 800)) (setf (top-margin newobj) 2) (setf (left-margin newobj) 1) (setf (right-margin newobj) 1) (setf (bottom-margin newobj) 1) (setf (orientation newobj) nil) (setf (scale newobj) nil) (setf (system-space newobj) (quote (1))) (setf (system-color newobj) (quote nil)) (setf (line-space newobj) 1) (setf (title newobj) nil) (setf (show-title? newobj) nil) (setf (show-page? newobj) nil) (setf (sheet-id newobj) nil) (setf (page-mode newobj) nil) newobj) (quote g) 24 2)) t nil nil nil))) (when (fboundp (quote set-active)) (set-active box nil)) box) (let ((box (om-load-editor-box1 "NOTE 3" (quote note) (quote ((om-load-inputfun (quote input-funbox) "object" "self" nil) (om-load-inputfun (quote input-funbox) "pitch (midicents)" "midic" 6400) (om-load-inputfun (quote input-funbox) "velocity (0-127)" "vel" 80) (om-load-inputfun (quote input-funbox) "duration (ms)" "dur" 1000) (om-load-inputfun (quote input-funbox) "MIDI channel (1-16)" "chan" 1))) (om-make-point 217 23) (om-make-point 60 60) (if (find-class (quote note) nil) (let ((newobj (make-instance (quote note) :midic 6400 :vel 80 :dur 1000 :chan 1 :from-file t))) (load-port-info newobj (quote nil)) (init-mus-color newobj (quote nil)) (set-extra-pairs newobj (quote nil)) (set-patch-pairs newobj (quote nil)) (set-name newobj nil) (set-tonalite newobj nil) newobj)) nil nil (pairlis (quote (scale show-stems cursor-mode obj-mode score-mode winpos winsize mode grillestep notechancolor? zoom player inport outport deltapict cmnpref staff fontsize approx)) (list nil (quote t) (quote :normal) 0 0 (om-make-point 300 20) (om-make-point 370 280) 0 1000 nil 1 (quote :midi-player) nil nil (om-make-point 0 0) (let ((newobj (make-instance (quote edition-values)))) (setf (paper-size newobj) (om-make-point 600 800)) (setf (top-margin newobj) 2) (setf (left-margin newobj) 1) (setf (right-margin newobj) 1) (setf (bottom-margin newobj) 1) (setf (orientation newobj) nil) (setf (scale newobj) nil) (setf (system-space newobj) (quote (1))) (setf (system-color newobj) (quote nil)) (setf (line-space newobj) 1) (setf (title newobj) nil) (setf (show-title? newobj) nil) (setf (show-page? newobj) nil) (setf (sheet-id newobj) nil) (setf (page-mode newobj) nil) newobj) (quote g) 24 2)) t nil nil nil))) (when (fboundp (quote set-active)) (set-active box nil)) box) (let ((box (om-load-editor-box1 "NOTE 2" (quote note) (quote ((om-load-inputfun (quote input-funbox) "object" "self" nil) (om-load-inputfun (quote input-funbox) "pitch (midicents)" "midic" 6200) (om-load-inputfun (quote input-funbox) "velocity (0-127)" "vel" 80) (om-load-inputfun (quote input-funbox) "duration (ms)" "dur" 1000) (om-load-inputfun (quote input-funbox) "MIDI channel (1-16)" "chan" 1))) (om-make-point 139 23) (om-make-point 60 60) (if (find-class (quote note) nil) (let ((newobj (make-instance (quote note) :midic 6200 :vel 80 :dur 1000 :chan 1 :from-file t))) (load-port-info newobj (quote nil)) (init-mus-color newobj (quote nil)) (set-extra-pairs newobj (quote nil)) (set-patch-pairs newobj (quote nil)) (set-name newobj nil) (set-tonalite newobj nil) newobj)) nil nil (pairlis (quote (scale show-stems cursor-mode obj-mode score-mode winpos winsize mode grillestep notechancolor? zoom player inport outport deltapict cmnpref staff fontsize approx)) (list nil (quote t) (quote :normal) 0 0 (om-make-point 300 20) (om-make-point 370 280) 0 1000 nil 1 (quote :midi-player) nil nil (om-make-point 0 0) (let ((newobj (make-instance (quote edition-values)))) (setf (paper-size newobj) (om-make-point 600 800)) (setf (top-margin newobj) 2) (setf (left-margin newobj) 1) (setf (right-margin newobj) 1) (setf (bottom-margin newobj) 1) (setf (orientation newobj) nil) (setf (scale newobj) nil) (setf (system-space newobj) (quote (1))) (setf (system-color newobj) (quote nil)) (setf (line-space newobj) 1) (setf (title newobj) nil) (setf (show-title? newobj) nil) (setf (show-page? newobj) nil) (setf (sheet-id newobj) nil) (setf (page-mode newobj) nil) newobj) (quote g) 24 2)) t nil nil nil))) (when (fboundp (quote set-active)) (set-active box nil)) box) (let ((box (om-load-editor-box1 "NOTE" (quote note) (quote ((om-load-inputfun (quote input-funbox) "object" "self" nil) (om-load-inputfun (quote input-funbox) "pitch (midicents)" "midic" 6000) (om-load-inputfun (quote input-funbox) "velocity (0-127)" "vel" 80) (om-load-inputfun (quote input-funbox) "duration (ms)" "dur" 1000) (om-load-inputfun (quote input-funbox) "MIDI channel (1-16)" "chan" 1))) (om-make-point 68 21) (om-make-point 60 60) (if (find-class (quote note) nil) (let ((newobj (make-instance (quote note) :midic 6000 :vel 80 :dur 1000 :chan 1 :from-file t))) (load-port-info newobj (quote nil)) (init-mus-color newobj (quote nil)) (set-extra-pairs newobj (quote nil)) (set-patch-pairs newobj (quote nil)) (set-name newobj nil) (set-tonalite newobj nil) newobj)) nil nil (pairlis (quote (scale show-stems cursor-mode obj-mode score-mode winpos winsize mode grillestep notechancolor? zoom player inport outport deltapict cmnpref staff fontsize approx)) (list nil (quote t) (quote :normal) 0 0 (om-make-point 300 20) (om-make-point 370 280) 0 1000 nil 1 (quote :midi-player) nil nil (om-make-point 0 0) (let ((newobj (make-instance (quote edition-values)))) (setf (paper-size newobj) (om-make-point 600 800)) (setf (top-margin newobj) 2) (setf (left-margin newobj) 1) (setf (right-margin newobj) 1) (setf (bottom-margin newobj) 1) (setf (orientation newobj) nil) (setf (scale newobj) nil) (setf (system-space newobj) (quote (1))) (setf (system-color newobj) (quote nil)) (setf (line-space newobj) 1) (setf (title newobj) nil) (setf (show-title? newobj) nil) (setf (show-page? newobj) nil) (setf (sheet-id newobj) nil) (setf (page-mode newobj) nil) newobj) (quote g) 24 2)) t nil nil nil))) (when (fboundp (quote set-active)) (set-active box nil)) box))) (quote ((5 0 0 2 nil 0) (6 0 1 2 nil 0) (7 0 2 2 nil 0) (8 0 3 2 nil 0) (3 1 4 0 nil 0) (2 1 4 1 nil 0) (1 1 4 2 nil 0) (0 1 4 3 nil 0) (14 1 5 0 nil 0) (9 1 5 1 nil 0) (12 1 5 2 nil 0) (11 1 5 3 nil 0) (11 1 5 4 nil 0) (9 1 5 5 nil 0) (14 1 5 6 nil 0) (15 1 5 7 nil 0) (10 1 6 0 nil 0) (10 1 6 1 nil 0) (10 1 6 2 nil 0) (11 1 6 3 nil 0) (11 1 6 4 nil 0) (9 1 6 5 nil 0) (11 1 6 6 nil 0) (9 1 6 7 nil 0) (14 1 6 8 nil 0) (15 1 6 9 nil 0) (10 1 7 0 nil 0) (10 1 7 1 nil 0) (10 1 7 2 nil 0) (11 1 7 3 nil 0) (11 1 7 4 nil 0) (9 1 7 5 nil 0) (14 1 7 6 nil 0) (15 1 7 7 nil 0) (10 1 8 0 nil 0) (10 1 8 1 nil 0) (10 1 8 2 nil 0) (10 1 8 3 nil 0) (11 1 8 4 nil 0) (9 1 8 5 nil 0) (11 1 8 6 nil 0) (9 1 8 7 nil 0) (14 1 8 8 nil 0) (15 1 8 9 nil 0))) nil 6.15))